<svg xmlns="http://www.w3.org/2000/svg" viewBox="0 0 188 34" role="img" aria-labelledby="title">
  <title id="title">1Forge</title>
  <path fill="#F3EFE8" d="M2 6.4 13.8 1v28H8.1V8.7L2 11.4V6.4Z"/>
  <path fill="#F3EFE8" d="M28.5 2h26.3v5H34.4v7h17v5h-17v13h-5.9V2Zm32.2 15c0-9.2 6.6-15.8 16-15.8 9.5 0 16 6.6 16 15.8 0 9.3-6.5 15.8-16 15.8-9.4 0-16-6.5-16-15.8Zm25.8 0c0-6.2-3.8-10.5-9.8-10.5-5.9 0-9.8 4.3-9.8 10.5s3.9 10.5 9.8 10.5c6 0 9.8-4.3 9.8-10.5ZM98.4 2h14.1c7.1 0 11.7 3.9 11.7 10 0 4.2-2.2 7.4-6 9l7 11h-6.8l-6.1-10.1h-8V32h-5.9V2Zm13.6 14.8c4.1 0 6.3-1.7 6.3-4.8 0-3.2-2.2-4.8-6.3-4.8h-7.7v9.6h7.7Zm17.6.2c0-9.4 6.4-15.8 15.8-15.8 6.3 0 10.6 2.8 13.1 6.7l-4.9 3c-1.7-2.7-4.4-4.4-8.2-4.4-5.9 0-9.6 4.2-9.6 10.5 0 6.4 3.9 10.6 9.9 10.6 4.9 0 8-2.5 8.6-6.5h-9v-4.8h14.7V32h-4.7l-.4-4c-2 3.1-5.5 4.8-10 4.8-9 0-15.3-6.5-15.3-15.8ZM165.4 2H188v5h-16.7v7.1h15.2V19h-15.2v8H188v5h-22.6V2Z"/>
</svg>
